<?xml version="1.0" encoding="utf-8" standalone="no"?>
<!DOCTYPE svg PUBLIC "-//W3C//DTD SVG 1.1//EN"
  "http://www.w3.org/Graphics/SVG/1.1/DTD/svg11.dtd">
<svg xmlns:xlink="http://www.w3.org/1999/xlink" width="394.160938pt" height="281.634375pt" viewBox="0 0 394.160938 281.634375" xmlns="http://www.w3.org/2000/svg" version="1.1">
 <metadata>
  <rdf:RDF xmlns:dc="http://purl.org/dc/elements/1.1/" xmlns:cc="http://creativecommons.org/ns#" xmlns:rdf="http://www.w3.org/1999/02/22-rdf-syntax-ns#">
   <cc:Work>
    <dc:type rdf:resource="http://purl.org/dc/dcmitype/StillImage"/>
    <dc:date>2026-05-19T11:53:41.996212</dc:date>
    <dc:format>image/svg+xml</dc:format>
    <dc:creator>
     <cc:Agent>
      <dc:title>Matplotlib v3.10.5, https://matplotlib.org/</dc:title>
     </cc:Agent>
    </dc:creator>
   </cc:Work>
  </rdf:RDF>
 </metadata>
 <defs>
  <style type="text/css">*{stroke-linejoin: round; stroke-linecap: butt}</style>
 </defs>
 <g id="figure_1">
  <g id="patch_1">
   <path d="M 0 281.634375 
L 394.160938 281.634375 
L 394.160938 0 
L 0 0 
z
" style="fill: #ffffff"/>
  </g>
  <g id="axes_1">
   <g id="patch_2">
    <path d="M 52.160938 244.078125 
L 386.960938 244.078125 
L 386.960938 22.318125 
L 52.160938 22.318125 
z
" style="fill: #ffffff"/>
   </g>
   <g id="matplotlib.axis_1">
    <g id="xtick_1">
     <g id="line2d_1">
      <defs>
       <path id="mb2d772e07a" d="M 0 0 
L 0 3.5 
" style="stroke: #000000; stroke-width: 0.8"/>
      </defs>
      <g>
       <use xlink:href="#mb2d772e07a" x="67.379119" y="244.078125" style="stroke: #000000; stroke-width: 0.8"/>
      </g>
     </g>
     <g id="text_1">
      <!-- 0 -->
      <g transform="translate(64.197869 258.676562) scale(0.1 -0.1)">
       <defs>
        <path id="DejaVuSans-30" d="M 2034 4250 
Q 1547 4250 1301 3770 
Q 1056 3291 1056 2328 
Q 1056 1369 1301 889 
Q 1547 409 2034 409 
Q 2525 409 2770 889 
Q 3016 1369 3016 2328 
Q 3016 3291 2770 3770 
Q 2525 4250 2034 4250 
z
M 2034 4750 
Q 2819 4750 3233 4129 
Q 3647 3509 3647 2328 
Q 3647 1150 3233 529 
Q 2819 -91 2034 -91 
Q 1250 -91 836 529 
Q 422 1150 422 2328 
Q 422 3509 836 4129 
Q 1250 4750 2034 4750 
z
" transform="scale(0.015625)"/>
       </defs>
       <use xlink:href="#DejaVuSans-30"/>
      </g>
     </g>
    </g>
    <g id="xtick_2">
     <g id="line2d_2">
      <g>
       <use xlink:href="#mb2d772e07a" x="135.775442" y="244.078125" style="stroke: #000000; stroke-width: 0.8"/>
      </g>
     </g>
     <g id="text_2">
      <!-- 20 -->
      <g transform="translate(129.412942 258.676562) scale(0.1 -0.1)">
       <defs>
        <path id="DejaVuSans-32" d="M 1228 531 
L 3431 531 
L 3431 0 
L 469 0 
L 469 531 
Q 828 903 1448 1529 
Q 2069 2156 2228 2338 
Q 2531 2678 2651 2914 
Q 2772 3150 2772 3378 
Q 2772 3750 2511 3984 
Q 2250 4219 1831 4219 
Q 1534 4219 1204 4116 
Q 875 4013 500 3803 
L 500 4441 
Q 881 4594 1212 4672 
Q 1544 4750 1819 4750 
Q 2544 4750 2975 4387 
Q 3406 4025 3406 3419 
Q 3406 3131 3298 2873 
Q 3191 2616 2906 2266 
Q 2828 2175 2409 1742 
Q 1991 1309 1228 531 
z
" transform="scale(0.015625)"/>
       </defs>
       <use xlink:href="#DejaVuSans-32"/>
       <use xlink:href="#DejaVuSans-30" transform="translate(63.623047 0)"/>
      </g>
     </g>
    </g>
    <g id="xtick_3">
     <g id="line2d_3">
      <g>
       <use xlink:href="#mb2d772e07a" x="204.171765" y="244.078125" style="stroke: #000000; stroke-width: 0.8"/>
      </g>
     </g>
     <g id="text_3">
      <!-- 40 -->
      <g transform="translate(197.809265 258.676562) scale(0.1 -0.1)">
       <defs>
        <path id="DejaVuSans-34" d="M 2419 4116 
L 825 1625 
L 2419 1625 
L 2419 4116 
z
M 2253 4666 
L 3047 4666 
L 3047 1625 
L 3713 1625 
L 3713 1100 
L 3047 1100 
L 3047 0 
L 2419 0 
L 2419 1100 
L 313 1100 
L 313 1709 
L 2253 4666 
z
" transform="scale(0.015625)"/>
       </defs>
       <use xlink:href="#DejaVuSans-34"/>
       <use xlink:href="#DejaVuSans-30" transform="translate(63.623047 0)"/>
      </g>
     </g>
    </g>
    <g id="xtick_4">
     <g id="line2d_4">
      <g>
       <use xlink:href="#mb2d772e07a" x="272.568088" y="244.078125" style="stroke: #000000; stroke-width: 0.8"/>
      </g>
     </g>
     <g id="text_4">
      <!-- 60 -->
      <g transform="translate(266.205588 258.676562) scale(0.1 -0.1)">
       <defs>
        <path id="DejaVuSans-36" d="M 2113 2584 
Q 1688 2584 1439 2293 
Q 1191 2003 1191 1497 
Q 1191 994 1439 701 
Q 1688 409 2113 409 
Q 2538 409 2786 701 
Q 3034 994 3034 1497 
Q 3034 2003 2786 2293 
Q 2538 2584 2113 2584 
z
M 3366 4563 
L 3366 3988 
Q 3128 4100 2886 4159 
Q 2644 4219 2406 4219 
Q 1781 4219 1451 3797 
Q 1122 3375 1075 2522 
Q 1259 2794 1537 2939 
Q 1816 3084 2150 3084 
Q 2853 3084 3261 2657 
Q 3669 2231 3669 1497 
Q 3669 778 3244 343 
Q 2819 -91 2113 -91 
Q 1303 -91 875 529 
Q 447 1150 447 2328 
Q 447 3434 972 4092 
Q 1497 4750 2381 4750 
Q 2619 4750 2861 4703 
Q 3103 4656 3366 4563 
z
" transform="scale(0.015625)"/>
       </defs>
       <use xlink:href="#DejaVuSans-36"/>
       <use xlink:href="#DejaVuSans-30" transform="translate(63.623047 0)"/>
      </g>
     </g>
    </g>
    <g id="xtick_5">
     <g id="line2d_5">
      <g>
       <use xlink:href="#mb2d772e07a" x="340.96441" y="244.078125" style="stroke: #000000; stroke-width: 0.8"/>
      </g>
     </g>
     <g id="text_5">
      <!-- 80 -->
      <g transform="translate(334.60191 258.676562) scale(0.1 -0.1)">
       <defs>
        <path id="DejaVuSans-38" d="M 2034 2216 
Q 1584 2216 1326 1975 
Q 1069 1734 1069 1313 
Q 1069 891 1326 650 
Q 1584 409 2034 409 
Q 2484 409 2743 651 
Q 3003 894 3003 1313 
Q 3003 1734 2745 1975 
Q 2488 2216 2034 2216 
z
M 1403 2484 
Q 997 2584 770 2862 
Q 544 3141 544 3541 
Q 544 4100 942 4425 
Q 1341 4750 2034 4750 
Q 2731 4750 3128 4425 
Q 3525 4100 3525 3541 
Q 3525 3141 3298 2862 
Q 3072 2584 2669 2484 
Q 3125 2378 3379 2068 
Q 3634 1759 3634 1313 
Q 3634 634 3220 271 
Q 2806 -91 2034 -91 
Q 1263 -91 848 271 
Q 434 634 434 1313 
Q 434 1759 690 2068 
Q 947 2378 1403 2484 
z
M 1172 3481 
Q 1172 3119 1398 2916 
Q 1625 2713 2034 2713 
Q 2441 2713 2670 2916 
Q 2900 3119 2900 3481 
Q 2900 3844 2670 4047 
Q 2441 4250 2034 4250 
Q 1625 4250 1398 4047 
Q 1172 3844 1172 3481 
z
" transform="scale(0.015625)"/>
       </defs>
       <use xlink:href="#DejaVuSans-38"/>
       <use xlink:href="#DejaVuSans-30" transform="translate(63.623047 0)"/>
      </g>
     </g>
    </g>
    <g id="text_6">
     <!-- Samples -->
     <g transform="translate(198.207813 272.354687) scale(0.1 -0.1)">
      <defs>
       <path id="DejaVuSans-53" d="M 3425 4513 
L 3425 3897 
Q 3066 4069 2747 4153 
Q 2428 4238 2131 4238 
Q 1616 4238 1336 4038 
Q 1056 3838 1056 3469 
Q 1056 3159 1242 3001 
Q 1428 2844 1947 2747 
L 2328 2669 
Q 3034 2534 3370 2195 
Q 3706 1856 3706 1288 
Q 3706 609 3251 259 
Q 2797 -91 1919 -91 
Q 1588 -91 1214 -16 
Q 841 59 441 206 
L 441 856 
Q 825 641 1194 531 
Q 1563 422 1919 422 
Q 2459 422 2753 634 
Q 3047 847 3047 1241 
Q 3047 1584 2836 1778 
Q 2625 1972 2144 2069 
L 1759 2144 
Q 1053 2284 737 2584 
Q 422 2884 422 3419 
Q 422 4038 858 4394 
Q 1294 4750 2059 4750 
Q 2388 4750 2728 4690 
Q 3069 4631 3425 4513 
z
" transform="scale(0.015625)"/>
       <path id="DejaVuSans-61" d="M 2194 1759 
Q 1497 1759 1228 1600 
Q 959 1441 959 1056 
Q 959 750 1161 570 
Q 1363 391 1709 391 
Q 2188 391 2477 730 
Q 2766 1069 2766 1631 
L 2766 1759 
L 2194 1759 
z
M 3341 1997 
L 3341 0 
L 2766 0 
L 2766 531 
Q 2569 213 2275 61 
Q 1981 -91 1556 -91 
Q 1019 -91 701 211 
Q 384 513 384 1019 
Q 384 1609 779 1909 
Q 1175 2209 1959 2209 
L 2766 2209 
L 2766 2266 
Q 2766 2663 2505 2880 
Q 2244 3097 1772 3097 
Q 1472 3097 1187 3025 
Q 903 2953 641 2809 
L 641 3341 
Q 956 3463 1253 3523 
Q 1550 3584 1831 3584 
Q 2591 3584 2966 3190 
Q 3341 2797 3341 1997 
z
" transform="scale(0.015625)"/>
       <path id="DejaVuSans-6d" d="M 3328 2828 
Q 3544 3216 3844 3400 
Q 4144 3584 4550 3584 
Q 5097 3584 5394 3201 
Q 5691 2819 5691 2113 
L 5691 0 
L 5113 0 
L 5113 2094 
Q 5113 2597 4934 2840 
Q 4756 3084 4391 3084 
Q 3944 3084 3684 2787 
Q 3425 2491 3425 1978 
L 3425 0 
L 2847 0 
L 2847 2094 
Q 2847 2600 2669 2842 
Q 2491 3084 2119 3084 
Q 1678 3084 1418 2786 
Q 1159 2488 1159 1978 
L 1159 0 
L 581 0 
L 581 3500 
L 1159 3500 
L 1159 2956 
Q 1356 3278 1631 3431 
Q 1906 3584 2284 3584 
Q 2666 3584 2933 3390 
Q 3200 3197 3328 2828 
z
" transform="scale(0.015625)"/>
       <path id="DejaVuSans-70" d="M 1159 525 
L 1159 -1331 
L 581 -1331 
L 581 3500 
L 1159 3500 
L 1159 2969 
Q 1341 3281 1617 3432 
Q 1894 3584 2278 3584 
Q 2916 3584 3314 3078 
Q 3713 2572 3713 1747 
Q 3713 922 3314 415 
Q 2916 -91 2278 -91 
Q 1894 -91 1617 61 
Q 1341 213 1159 525 
z
M 3116 1747 
Q 3116 2381 2855 2742 
Q 2594 3103 2138 3103 
Q 1681 3103 1420 2742 
Q 1159 2381 1159 1747 
Q 1159 1113 1420 752 
Q 1681 391 2138 391 
Q 2594 391 2855 752 
Q 3116 1113 3116 1747 
z
" transform="scale(0.015625)"/>
       <path id="DejaVuSans-6c" d="M 603 4863 
L 1178 4863 
L 1178 0 
L 603 0 
L 603 4863 
z
" transform="scale(0.015625)"/>
       <path id="DejaVuSans-65" d="M 3597 1894 
L 3597 1613 
L 953 1613 
Q 991 1019 1311 708 
Q 1631 397 2203 397 
Q 2534 397 2845 478 
Q 3156 559 3463 722 
L 3463 178 
Q 3153 47 2828 -22 
Q 2503 -91 2169 -91 
Q 1331 -91 842 396 
Q 353 884 353 1716 
Q 353 2575 817 3079 
Q 1281 3584 2069 3584 
Q 2775 3584 3186 3129 
Q 3597 2675 3597 1894 
z
M 3022 2063 
Q 3016 2534 2758 2815 
Q 2500 3097 2075 3097 
Q 1594 3097 1305 2825 
Q 1016 2553 972 2059 
L 3022 2063 
z
" transform="scale(0.015625)"/>
       <path id="DejaVuSans-73" d="M 2834 3397 
L 2834 2853 
Q 2591 2978 2328 3040 
Q 2066 3103 1784 3103 
Q 1356 3103 1142 2972 
Q 928 2841 928 2578 
Q 928 2378 1081 2264 
Q 1234 2150 1697 2047 
L 1894 2003 
Q 2506 1872 2764 1633 
Q 3022 1394 3022 966 
Q 3022 478 2636 193 
Q 2250 -91 1575 -91 
Q 1294 -91 989 -36 
Q 684 19 347 128 
L 347 722 
Q 666 556 975 473 
Q 1284 391 1588 391 
Q 1994 391 2212 530 
Q 2431 669 2431 922 
Q 2431 1156 2273 1281 
Q 2116 1406 1581 1522 
L 1381 1569 
Q 847 1681 609 1914 
Q 372 2147 372 2553 
Q 372 3047 722 3315 
Q 1072 3584 1716 3584 
Q 2034 3584 2315 3537 
Q 2597 3491 2834 3397 
z
" transform="scale(0.015625)"/>
      </defs>
      <use xlink:href="#DejaVuSans-53"/>
      <use xlink:href="#DejaVuSans-61" transform="translate(63.476562 0)"/>
      <use xlink:href="#DejaVuSans-6d" transform="translate(124.755859 0)"/>
      <use xlink:href="#DejaVuSans-70" transform="translate(222.167969 0)"/>
      <use xlink:href="#DejaVuSans-6c" transform="translate(285.644531 0)"/>
      <use xlink:href="#DejaVuSans-65" transform="translate(313.427734 0)"/>
      <use xlink:href="#DejaVuSans-73" transform="translate(374.951172 0)"/>
     </g>
    </g>
   </g>
   <g id="matplotlib.axis_2">
    <g id="ytick_1">
     <g id="line2d_6">
      <defs>
       <path id="ma3f3ff426b" d="M 0 0 
L -3.5 0 
" style="stroke: #000000; stroke-width: 0.8"/>
      </defs>
      <g>
       <use xlink:href="#ma3f3ff426b" x="52.160938" y="233.998125" style="stroke: #000000; stroke-width: 0.8"/>
      </g>
     </g>
     <g id="text_7">
      <!-- −1.0 -->
      <g transform="translate(20.878125 237.797344) scale(0.1 -0.1)">
       <defs>
        <path id="DejaVuSans-2212" d="M 678 2272 
L 4684 2272 
L 4684 1741 
L 678 1741 
L 678 2272 
z
" transform="scale(0.015625)"/>
        <path id="DejaVuSans-31" d="M 794 531 
L 1825 531 
L 1825 4091 
L 703 3866 
L 703 4441 
L 1819 4666 
L 2450 4666 
L 2450 531 
L 3481 531 
L 3481 0 
L 794 0 
L 794 531 
z
" transform="scale(0.015625)"/>
        <path id="DejaVuSans-2e" d="M 684 794 
L 1344 794 
L 1344 0 
L 684 0 
L 684 794 
z
" transform="scale(0.015625)"/>
       </defs>
       <use xlink:href="#DejaVuSans-2212"/>
       <use xlink:href="#DejaVuSans-31" transform="translate(83.789062 0)"/>
       <use xlink:href="#DejaVuSans-2e" transform="translate(147.412109 0)"/>
       <use xlink:href="#DejaVuSans-30" transform="translate(179.199219 0)"/>
      </g>
     </g>
    </g>
    <g id="ytick_2">
     <g id="line2d_7">
      <g>
       <use xlink:href="#ma3f3ff426b" x="52.160938" y="208.554463" style="stroke: #000000; stroke-width: 0.8"/>
      </g>
     </g>
     <g id="text_8">
      <!-- −0.8 -->
      <g transform="translate(20.878125 212.353682) scale(0.1 -0.1)">
       <use xlink:href="#DejaVuSans-2212"/>
       <use xlink:href="#DejaVuSans-30" transform="translate(83.789062 0)"/>
       <use xlink:href="#DejaVuSans-2e" transform="translate(147.412109 0)"/>
       <use xlink:href="#DejaVuSans-38" transform="translate(179.199219 0)"/>
      </g>
     </g>
    </g>
    <g id="ytick_3">
     <g id="line2d_8">
      <g>
       <use xlink:href="#ma3f3ff426b" x="52.160938" y="183.110801" style="stroke: #000000; stroke-width: 0.8"/>
      </g>
     </g>
     <g id="text_9">
      <!-- −0.6 -->
      <g transform="translate(20.878125 186.91002) scale(0.1 -0.1)">
       <use xlink:href="#DejaVuSans-2212"/>
       <use xlink:href="#DejaVuSans-30" transform="translate(83.789062 0)"/>
       <use xlink:href="#DejaVuSans-2e" transform="translate(147.412109 0)"/>
       <use xlink:href="#DejaVuSans-36" transform="translate(179.199219 0)"/>
      </g>
     </g>
    </g>
    <g id="ytick_4">
     <g id="line2d_9">
      <g>
       <use xlink:href="#ma3f3ff426b" x="52.160938" y="157.66714" style="stroke: #000000; stroke-width: 0.8"/>
      </g>
     </g>
     <g id="text_10">
      <!-- −0.4 -->
      <g transform="translate(20.878125 161.466358) scale(0.1 -0.1)">
       <use xlink:href="#DejaVuSans-2212"/>
       <use xlink:href="#DejaVuSans-30" transform="translate(83.789062 0)"/>
       <use xlink:href="#DejaVuSans-2e" transform="translate(147.412109 0)"/>
       <use xlink:href="#DejaVuSans-34" transform="translate(179.199219 0)"/>
      </g>
     </g>
    </g>
    <g id="ytick_5">
     <g id="line2d_10">
      <g>
       <use xlink:href="#ma3f3ff426b" x="52.160938" y="132.223478" style="stroke: #000000; stroke-width: 0.8"/>
      </g>
     </g>
     <g id="text_11">
      <!-- −0.2 -->
      <g transform="translate(20.878125 136.022697) scale(0.1 -0.1)">
       <use xlink:href="#DejaVuSans-2212"/>
       <use xlink:href="#DejaVuSans-30" transform="translate(83.789062 0)"/>
       <use xlink:href="#DejaVuSans-2e" transform="translate(147.412109 0)"/>
       <use xlink:href="#DejaVuSans-32" transform="translate(179.199219 0)"/>
      </g>
     </g>
    </g>
    <g id="ytick_6">
     <g id="line2d_11">
      <g>
       <use xlink:href="#ma3f3ff426b" x="52.160938" y="106.779816" style="stroke: #000000; stroke-width: 0.8"/>
      </g>
     </g>
     <g id="text_12">
      <!-- 0.0 -->
      <g transform="translate(29.257813 110.579035) scale(0.1 -0.1)">
       <use xlink:href="#DejaVuSans-30"/>
       <use xlink:href="#DejaVuSans-2e" transform="translate(63.623047 0)"/>
       <use xlink:href="#DejaVuSans-30" transform="translate(95.410156 0)"/>
      </g>
     </g>
    </g>
    <g id="ytick_7">
     <g id="line2d_12">
      <g>
       <use xlink:href="#ma3f3ff426b" x="52.160938" y="81.336154" style="stroke: #000000; stroke-width: 0.8"/>
      </g>
     </g>
     <g id="text_13">
      <!-- 0.2 -->
      <g transform="translate(29.257813 85.135373) scale(0.1 -0.1)">
       <use xlink:href="#DejaVuSans-30"/>
       <use xlink:href="#DejaVuSans-2e" transform="translate(63.623047 0)"/>
       <use xlink:href="#DejaVuSans-32" transform="translate(95.410156 0)"/>
      </g>
     </g>
    </g>
    <g id="ytick_8">
     <g id="line2d_13">
      <g>
       <use xlink:href="#ma3f3ff426b" x="52.160938" y="55.892492" style="stroke: #000000; stroke-width: 0.8"/>
      </g>
     </g>
     <g id="text_14">
      <!-- 0.4 -->
      <g transform="translate(29.257813 59.691711) scale(0.1 -0.1)">
       <use xlink:href="#DejaVuSans-30"/>
       <use xlink:href="#DejaVuSans-2e" transform="translate(63.623047 0)"/>
       <use xlink:href="#DejaVuSans-34" transform="translate(95.410156 0)"/>
      </g>
     </g>
    </g>
    <g id="ytick_9">
     <g id="line2d_14">
      <g>
       <use xlink:href="#ma3f3ff426b" x="52.160938" y="30.448831" style="stroke: #000000; stroke-width: 0.8"/>
      </g>
     </g>
     <g id="text_15">
      <!-- 0.6 -->
      <g transform="translate(29.257813 34.248049) scale(0.1 -0.1)">
       <use xlink:href="#DejaVuSans-30"/>
       <use xlink:href="#DejaVuSans-2e" transform="translate(63.623047 0)"/>
       <use xlink:href="#DejaVuSans-36" transform="translate(95.410156 0)"/>
      </g>
     </g>
    </g>
    <g id="text_16">
     <!-- Normalized Amplitude -->
     <g transform="translate(14.798438 188.765312) rotate(-90) scale(0.1 -0.1)">
      <defs>
       <path id="DejaVuSans-4e" d="M 628 4666 
L 1478 4666 
L 3547 763 
L 3547 4666 
L 4159 4666 
L 4159 0 
L 3309 0 
L 1241 3903 
L 1241 0 
L 628 0 
L 628 4666 
z
" transform="scale(0.015625)"/>
       <path id="DejaVuSans-6f" d="M 1959 3097 
Q 1497 3097 1228 2736 
Q 959 2375 959 1747 
Q 959 1119 1226 758 
Q 1494 397 1959 397 
Q 2419 397 2687 759 
Q 2956 1122 2956 1747 
Q 2956 2369 2687 2733 
Q 2419 3097 1959 3097 
z
M 1959 3584 
Q 2709 3584 3137 3096 
Q 3566 2609 3566 1747 
Q 3566 888 3137 398 
Q 2709 -91 1959 -91 
Q 1206 -91 779 398 
Q 353 888 353 1747 
Q 353 2609 779 3096 
Q 1206 3584 1959 3584 
z
" transform="scale(0.015625)"/>
       <path id="DejaVuSans-72" d="M 2631 2963 
Q 2534 3019 2420 3045 
Q 2306 3072 2169 3072 
Q 1681 3072 1420 2755 
Q 1159 2438 1159 1844 
L 1159 0 
L 581 0 
L 581 3500 
L 1159 3500 
L 1159 2956 
Q 1341 3275 1631 3429 
Q 1922 3584 2338 3584 
Q 2397 3584 2469 3576 
Q 2541 3569 2628 3553 
L 2631 2963 
z
" transform="scale(0.015625)"/>
       <path id="DejaVuSans-69" d="M 603 3500 
L 1178 3500 
L 1178 0 
L 603 0 
L 603 3500 
z
M 603 4863 
L 1178 4863 
L 1178 4134 
L 603 4134 
L 603 4863 
z
" transform="scale(0.015625)"/>
       <path id="DejaVuSans-7a" d="M 353 3500 
L 3084 3500 
L 3084 2975 
L 922 459 
L 3084 459 
L 3084 0 
L 275 0 
L 275 525 
L 2438 3041 
L 353 3041 
L 353 3500 
z
" transform="scale(0.015625)"/>
       <path id="DejaVuSans-64" d="M 2906 2969 
L 2906 4863 
L 3481 4863 
L 3481 0 
L 2906 0 
L 2906 525 
Q 2725 213 2448 61 
Q 2172 -91 1784 -91 
Q 1150 -91 751 415 
Q 353 922 353 1747 
Q 353 2572 751 3078 
Q 1150 3584 1784 3584 
Q 2172 3584 2448 3432 
Q 2725 3281 2906 2969 
z
M 947 1747 
Q 947 1113 1208 752 
Q 1469 391 1925 391 
Q 2381 391 2643 752 
Q 2906 1113 2906 1747 
Q 2906 2381 2643 2742 
Q 2381 3103 1925 3103 
Q 1469 3103 1208 2742 
Q 947 2381 947 1747 
z
" transform="scale(0.015625)"/>
       <path id="DejaVuSans-20" transform="scale(0.015625)"/>
       <path id="DejaVuSans-41" d="M 2188 4044 
L 1331 1722 
L 3047 1722 
L 2188 4044 
z
M 1831 4666 
L 2547 4666 
L 4325 0 
L 3669 0 
L 3244 1197 
L 1141 1197 
L 716 0 
L 50 0 
L 1831 4666 
z
" transform="scale(0.015625)"/>
       <path id="DejaVuSans-74" d="M 1172 4494 
L 1172 3500 
L 2356 3500 
L 2356 3053 
L 1172 3053 
L 1172 1153 
Q 1172 725 1289 603 
Q 1406 481 1766 481 
L 2356 481 
L 2356 0 
L 1766 0 
Q 1100 0 847 248 
Q 594 497 594 1153 
L 594 3053 
L 172 3053 
L 172 3500 
L 594 3500 
L 594 4494 
L 1172 4494 
z
" transform="scale(0.015625)"/>
       <path id="DejaVuSans-75" d="M 544 1381 
L 544 3500 
L 1119 3500 
L 1119 1403 
Q 1119 906 1312 657 
Q 1506 409 1894 409 
Q 2359 409 2629 706 
Q 2900 1003 2900 1516 
L 2900 3500 
L 3475 3500 
L 3475 0 
L 2900 0 
L 2900 538 
Q 2691 219 2414 64 
Q 2138 -91 1772 -91 
Q 1169 -91 856 284 
Q 544 659 544 1381 
z
M 1991 3584 
L 1991 3584 
z
" transform="scale(0.015625)"/>
      </defs>
      <use xlink:href="#DejaVuSans-4e"/>
      <use xlink:href="#DejaVuSans-6f" transform="translate(74.804688 0)"/>
      <use xlink:href="#DejaVuSans-72" transform="translate(135.986328 0)"/>
      <use xlink:href="#DejaVuSans-6d" transform="translate(175.349609 0)"/>
      <use xlink:href="#DejaVuSans-61" transform="translate(272.761719 0)"/>
      <use xlink:href="#DejaVuSans-6c" transform="translate(334.041016 0)"/>
      <use xlink:href="#DejaVuSans-69" transform="translate(361.824219 0)"/>
      <use xlink:href="#DejaVuSans-7a" transform="translate(389.607422 0)"/>
      <use xlink:href="#DejaVuSans-65" transform="translate(442.097656 0)"/>
      <use xlink:href="#DejaVuSans-64" transform="translate(503.621094 0)"/>
      <use xlink:href="#DejaVuSans-20" transform="translate(567.097656 0)"/>
      <use xlink:href="#DejaVuSans-41" transform="translate(598.884766 0)"/>
      <use xlink:href="#DejaVuSans-6d" transform="translate(667.292969 0)"/>
      <use xlink:href="#DejaVuSans-70" transform="translate(764.705078 0)"/>
      <use xlink:href="#DejaVuSans-6c" transform="translate(828.181641 0)"/>
      <use xlink:href="#DejaVuSans-69" transform="translate(855.964844 0)"/>
      <use xlink:href="#DejaVuSans-74" transform="translate(883.748047 0)"/>
      <use xlink:href="#DejaVuSans-75" transform="translate(922.957031 0)"/>
      <use xlink:href="#DejaVuSans-64" transform="translate(986.335938 0)"/>
      <use xlink:href="#DejaVuSans-65" transform="translate(1049.8125 0)"/>
     </g>
    </g>
   </g>
   <g id="line2d_15">
    <path d="M 67.379119 105.093528 
L 70.798935 106.043851 
L 74.218752 105.318604 
L 77.638568 104.614794 
L 81.058384 104.336127 
L 84.4782 105.325749 
L 87.898016 104.275392 
L 91.317832 104.078896 
L 94.737648 104.171786 
L 98.157465 103.696624 
L 101.577281 102.978523 
L 104.997097 101.435139 
L 108.416913 99.995364 
L 111.836729 100.577704 
L 115.256545 102.942795 
L 118.676361 103.918128 
L 122.096178 102.371172 
L 125.515994 100.084682 
L 128.93581 100.181141 
L 132.355626 102.714147 
L 135.775442 104.829152 
L 139.195258 106.429697 
L 142.615074 107.994515 
L 146.034891 107.637251 
L 149.454707 103.171446 
L 152.874523 90.027691 
L 156.294339 68.098801 
L 159.714155 70.728259 
L 163.133971 130.998772 
L 166.553787 208.975278 
L 169.973603 233.998125 
L 173.39342 207.4355 
L 176.813236 171.991296 
L 180.233052 140.326947 
L 183.652868 106.101013 
L 187.072684 79.870656 
L 190.4925 68.702575 
L 193.912316 67.56647 
L 197.332133 72.278783 
L 200.751949 79.98498 
L 204.171765 87.02309 
L 207.591581 90.67433 
L 211.011397 92.307034 
L 214.431213 94.800738 
L 217.851029 97.562393 
L 221.270846 99.859602 
L 224.690662 101.928166 
L 228.110478 103.09642 
L 231.530294 103.171445 
L 234.95011 104.143204 
L 238.369926 104.989921 
L 241.789742 103.28577 
L 245.209559 103.264334 
L 248.629375 104.954195 
L 252.049191 103.571581 
L 255.469007 101.853138 
L 258.888823 102.864198 
L 262.308639 104.632657 
L 265.728455 105.765185 
L 269.148272 105.618707 
L 272.568088 105.250724 
L 275.987904 106.01527 
L 279.40772 106.279645 
L 282.827536 106.504722 
L 286.247352 107.151371 
L 289.667168 106.397543 
L 293.086984 106.665491 
L 296.506801 108.337489 
L 299.926617 109.720102 
L 303.346433 106.386825 
L 306.766249 103.107137 
L 310.186065 102.278284 
L 313.605881 102.399754 
L 317.025697 102.846334 
L 320.445514 104.300401 
L 323.86533 105.815202 
L 327.285146 104.764845 
L 330.704962 104.97563 
L 334.124778 106.94773 
L 337.544594 109.605778 
L 340.96441 110.859776 
L 344.384227 111.438544 
L 347.804043 110.266716 
L 351.223859 108.537557 
L 354.643675 108.144566 
L 358.063491 107.562225 
L 361.483307 108.090977 
L 364.903123 108.283899 
L 368.32294 108.508976 
L 371.742756 106.644055 
" clip-path="url(#pedb41b2a56)" style="fill: none; stroke: #808080; stroke-opacity: 0.5; stroke-width: 0.8; stroke-linecap: square"/>
   </g>
   <g id="line2d_16">
    <path d="M 67.379119 102.566852 
L 70.798935 102.782996 
L 74.218752 103.001909 
L 77.638568 101.971992 
L 81.058384 100.97348 
L 84.4782 100.370314 
L 87.898016 100.646494 
L 91.317832 101.010427 
L 94.737648 101.318939 
L 98.157465 100.491316 
L 101.577281 99.587015 
L 104.997097 98.347424 
L 108.416913 95.053523 
L 111.836729 92.455181 
L 115.256545 92.220572 
L 118.676361 93.905386 
L 122.096178 94.63048 
L 125.515994 93.080523 
L 128.93581 92.062616 
L 132.355626 92.401616 
L 135.775442 91.214666 
L 139.195258 91.825228 
L 142.615074 93.296668 
L 146.034891 91.85386 
L 149.454707 92.669476 
L 152.874523 93.720641 
L 156.294339 78.408576 
L 159.714155 73.75501 
L 163.133971 127.549055 
L 166.553787 206.875861 
L 169.973603 233.998125 
L 173.39342 209.641397 
L 176.813236 181.486264 
L 180.233052 161.698913 
L 183.652868 139.518267 
L 187.072684 119.747538 
L 190.4925 109.183266 
L 193.912316 103.537653 
L 197.332133 100.537499 
L 200.751949 98.745533 
L 204.171765 97.05794 
L 207.591581 95.58466 
L 211.011397 94.103972 
L 214.431213 93.112849 
L 217.851029 92.193771 
L 221.270846 90.943094 
L 224.690662 90.621649 
L 228.110478 92.575256 
L 231.530294 94.84662 
L 234.95011 94.185259 
L 238.369926 93.248634 
L 241.789742 94.972243 
L 245.209559 97.390471 
L 248.629375 98.255974 
L 252.049191 99.122398 
L 255.469007 100.094129 
L 258.888823 99.812397 
L 262.308639 99.455853 
L 265.728455 100.620628 
L 269.148272 101.862071 
L 272.568088 102.230627 
L 275.987904 102.973277 
L 279.40772 103.33259 
L 282.827536 103.127534 
L 286.247352 102.881832 
L 289.667168 102.64352 
L 293.086984 102.707252 
L 296.506801 103.532111 
L 299.926617 103.763034 
L 303.346433 102.815327 
L 306.766249 102.855045 
L 310.186065 104.831747 
L 313.605881 105.989134 
L 317.025697 104.91488 
L 320.445514 104.296005 
L 323.86533 105.496807 
L 327.285146 107.042145 
L 330.704962 107.319253 
L 334.124778 106.602467 
L 337.544594 104.716285 
L 340.96441 104.341265 
L 344.384227 105.949416 
L 347.804043 107.087406 
L 351.223859 106.213592 
L 354.643675 105.95034 
L 358.063491 107.661019 
L 361.483307 108.486801 
L 364.903123 107.34604 
L 368.32294 107.467043 
L 371.742756 108.872904 
" clip-path="url(#pedb41b2a56)" style="fill: none; stroke: #808080; stroke-opacity: 0.5; stroke-width: 0.8; stroke-linecap: square"/>
   </g>
   <g id="line2d_17">
    <path d="M 67.379119 109.63978 
L 70.798935 110.964735 
L 74.218752 110.764375 
L 77.638568 109.668865 
L 81.058384 108.330983 
L 84.4782 104.714824 
L 87.898016 101.641574 
L 91.317832 103.002078 
L 94.737648 104.456297 
L 98.157465 102.914825 
L 101.577281 99.851268 
L 104.997097 98.487537 
L 108.416913 97.479276 
L 111.836729 98.157917 
L 115.256545 96.629369 
L 118.676361 94.91015 
L 122.096178 90.857739 
L 125.515994 84.846958 
L 128.93581 80.652344 
L 132.355626 80.500457 
L 135.775442 79.346777 
L 139.195258 74.890411 
L 142.615074 69.693999 
L 146.034891 59.016809 
L 149.454707 41.718034 
L 152.874523 32.398125 
L 156.294339 43.395237 
L 159.714155 80.067416 
L 163.133971 144.356831 
L 166.553787 205.721661 
L 169.973603 233.998125 
L 173.39342 228.556076 
L 176.813236 208.14858 
L 180.233052 185.272092 
L 183.652868 160.172279 
L 187.072684 141.290059 
L 190.4925 126.372987 
L 193.912316 113.453064 
L 197.332133 105.322365 
L 200.751949 101.925955 
L 204.171765 99.34714 
L 207.591581 96.671375 
L 211.011397 94.735656 
L 214.431213 91.781967 
L 217.851029 86.947497 
L 221.270846 87.768321 
L 224.690662 90.108004 
L 228.110478 90.360066 
L 231.530294 91.662407 
L 234.95011 91.403871 
L 238.369926 92.564011 
L 241.789742 94.923082 
L 245.209559 98.891487 
L 248.629375 98.225775 
L 252.049191 95.007106 
L 255.469007 96.008902 
L 258.888823 99.93529 
L 262.308639 103.102257 
L 265.728455 104.844089 
L 269.148272 105.807105 
L 272.568088 102.898667 
L 275.987904 99.108001 
L 279.40772 99.54427 
L 282.827536 102.546422 
L 286.247352 101.696513 
L 289.667168 100.617158 
L 293.086984 103.263837 
L 296.506801 106.967249 
L 299.926617 106.12057 
L 303.346433 103.73242 
L 306.766249 103.435112 
L 310.186065 105.632598 
L 313.605881 107.746063 
L 317.025697 110.101899 
L 320.445514 110.027571 
L 323.86533 105.21249 
L 327.285146 101.91303 
L 330.704962 104.365812 
L 334.124778 107.073891 
L 337.544594 108.004592 
L 340.96441 111.045526 
L 344.384227 111.804949 
L 347.804043 108.424699 
L 351.223859 111.494713 
L 354.643675 116.69759 
L 358.063491 115.556839 
L 361.483307 111.145707 
L 364.903123 109.869222 
L 368.32294 107.371199 
L 371.742756 105.47425 
" clip-path="url(#pedb41b2a56)" style="fill: none; stroke: #808080; stroke-opacity: 0.5; stroke-width: 0.8; stroke-linecap: square"/>
   </g>
   <g id="line2d_18">
    <path d="M 67.379119 103.009994 
L 70.798935 103.898533 
L 74.218752 104.97447 
L 77.638568 104.89531 
L 81.058384 104.757992 
L 84.4782 104.107741 
L 87.898016 103.131967 
L 91.317832 103.577046 
L 94.737648 104.505162 
L 98.157465 104.227292 
L 101.577281 102.389635 
L 104.997097 102.294321 
L 108.416913 102.497875 
L 111.836729 100.670722 
L 115.256545 98.443722 
L 118.676361 99.295911 
L 122.096178 101.703037 
L 125.515994 101.598031 
L 128.93581 100.030971 
L 132.355626 101.313695 
L 135.775442 101.997868 
L 139.195258 99.095584 
L 142.615074 99.892041 
L 146.034891 99.380728 
L 149.454707 94.935621 
L 152.874523 98.385561 
L 156.294339 91.40733 
L 159.714155 57.151792 
L 163.133971 71.453195 
L 166.553787 171.973412 
L 169.973603 233.998125 
L 173.39342 182.2909 
L 176.813236 116.704773 
L 180.233052 106.147339 
L 183.652868 109.816189 
L 187.072684 106.310507 
L 190.4925 106.670768 
L 193.912316 107.28709 
L 197.332133 107.055263 
L 200.751949 108.915537 
L 204.171765 108.01892 
L 207.591581 105.97771 
L 211.011397 107.064148 
L 214.431213 107.708741 
L 217.851029 105.813734 
L 221.270846 104.224059 
L 224.690662 103.846837 
L 228.110478 103.606932 
L 231.530294 103.775752 
L 234.95011 103.648125 
L 238.369926 103.521308 
L 241.789742 103.883185 
L 245.209559 103.422761 
L 248.629375 102.047954 
L 252.049191 102.04149 
L 255.469007 102.634386 
L 258.888823 102.225663 
L 262.308639 101.883976 
L 265.728455 102.264432 
L 269.148272 102.667506 
L 272.568088 102.224851 
L 275.987904 101.777351 
L 279.40772 102.471218 
L 282.827536 104.077048 
L 286.247352 104.6546 
L 289.667168 104.140053 
L 293.086984 104.878347 
L 296.506801 104.994663 
L 299.926617 104.10855 
L 303.346433 103.728902 
L 306.766249 104.531817 
L 310.186065 105.961554 
L 313.605881 106.732966 
L 317.025697 105.587561 
L 320.445514 104.375112 
L 323.86533 104.502737 
L 327.285146 105.505977 
L 330.704962 104.92035 
L 334.124778 104.542318 
L 337.544594 105.201451 
L 340.96441 105.990633 
L 344.384227 106.039907 
L 347.804043 105.892894 
L 351.223859 106.115029 
L 354.643675 106.038291 
L 358.063491 105.072209 
L 361.483307 104.484159 
L 364.903123 105.20549 
L 368.32294 106.325854 
L 371.742756 106.420362 
" clip-path="url(#pedb41b2a56)" style="fill: none; stroke: #808080; stroke-opacity: 0.5; stroke-width: 0.8; stroke-linecap: square"/>
   </g>
   <g id="line2d_19">
    <path d="M 67.379119 105.23807 
L 70.798935 107.394196 
L 74.218752 106.703308 
L 77.638568 105.82463 
L 81.058384 106.32077 
L 84.4782 105.29835 
L 87.898016 104.788298 
L 91.317832 105.203294 
L 94.737648 104.605143 
L 98.157465 102.641448 
L 101.577281 98.976032 
L 104.997097 96.520833 
L 108.416913 97.57803 
L 111.836729 99.47913 
L 115.256545 97.816828 
L 118.676361 95.428859 
L 122.096178 96.402595 
L 125.515994 96.63212 
L 128.93581 96.207851 
L 132.355626 95.869362 
L 135.775442 95.873995 
L 139.195258 94.675377 
L 142.615074 89.400989 
L 146.034891 74.085531 
L 149.454707 57.432359 
L 152.874523 56.331127 
L 156.294339 68.651194 
L 159.714155 89.171473 
L 163.133971 135.333395 
L 166.553787 199.827053 
L 169.973603 233.998125 
L 173.39342 213.721275 
L 176.813236 173.865444 
L 180.233052 145.205214 
L 183.652868 127.353416 
L 187.072684 115.383451 
L 190.4925 109.835486 
L 193.912316 108.242736 
L 197.332133 104.377939 
L 200.751949 100.738029 
L 204.171765 99.203237 
L 207.591581 99.548684 
L 211.011397 99.374799 
L 214.431213 98.823018 
L 217.851029 97.895657 
L 221.270846 95.08574 
L 224.690662 92.658356 
L 228.110478 93.284323 
L 231.530294 95.906453 
L 234.95011 96.110472 
L 238.369926 95.146018 
L 241.789742 96.815276 
L 245.209559 97.46675 
L 248.629375 96.625162 
L 252.049191 96.180029 
L 255.469007 95.338446 
L 258.888823 94.999952 
L 262.308639 96.840779 
L 265.728455 99.722561 
L 269.148272 98.503078 
L 272.568088 97.536296 
L 275.987904 100.244208 
L 279.40772 102.337733 
L 282.827536 103.721828 
L 286.247352 104.644557 
L 289.667168 105.602062 
L 293.086984 105.873316 
L 296.506801 105.451365 
L 299.926617 105.606698 
L 303.346433 105.272846 
L 306.766249 106.471467 
L 310.186065 108.625273 
L 313.605881 107.238862 
L 317.025697 104.266656 
L 320.445514 103.740375 
L 323.86533 104.897265 
L 327.285146 106.826184 
L 330.704962 108.036397 
L 334.124778 107.899611 
L 337.544594 105.884908 
L 340.96441 105.833903 
L 344.384227 107.983072 
L 347.804043 108.476894 
L 351.223859 107.169309 
L 354.643675 107.704864 
L 358.063491 108.986946 
L 361.483307 107.275956 
L 364.903123 107.484613 
L 368.32294 109.52018 
L 371.742756 109.223424 
" clip-path="url(#pedb41b2a56)" style="fill: none; stroke: #808080; stroke-opacity: 0.5; stroke-width: 0.8; stroke-linecap: square"/>
   </g>
   <g id="line2d_20">
    <path d="M 67.379119 103.484482 
L 70.798935 102.918191 
L 74.218752 103.994265 
L 77.638568 104.539366 
L 81.058384 103.796472 
L 84.4782 102.781619 
L 87.898016 102.524961 
L 91.317832 102.92643 
L 94.737648 103.470355 
L 98.157465 102.104656 
L 101.577281 100.922622 
L 104.997097 100.139704 
L 108.416913 99.788858 
L 111.836729 99.860674 
L 115.256545 100.178549 
L 118.676361 99.307332 
L 122.096178 96.710147 
L 125.515994 92.724906 
L 128.93581 84.580163 
L 132.355626 69.623423 
L 135.775442 53.960281 
L 139.195258 47.58038 
L 142.615074 51.366624 
L 146.034891 61.166704 
L 149.454707 74.249128 
L 152.874523 89.300066 
L 156.294339 104.232083 
L 159.714155 123.012776 
L 163.133971 156.547719 
L 166.553787 202.342127 
L 169.973603 233.998125 
L 173.39342 231.969581 
L 176.813236 205.061696 
L 180.233052 172.51461 
L 183.652868 144.351818 
L 187.072684 121.882551 
L 190.4925 107.320207 
L 193.912316 97.785049 
L 197.332133 90.553919 
L 200.751949 87.034899 
L 204.171765 89.012796 
L 207.591581 92.981562 
L 211.011397 94.468525 
L 214.431213 93.419537 
L 217.851029 92.930934 
L 221.270846 93.282953 
L 224.690662 93.737412 
L 228.110478 94.045864 
L 231.530294 95.33974 
L 234.95011 95.353871 
L 238.369926 95.431577 
L 241.789742 96.052023 
L 245.209559 97.502489 
L 248.629375 98.882318 
L 252.049191 99.164872 
L 255.469007 99.114247 
L 258.888823 100.574137 
L 262.308639 102.14704 
L 265.728455 101.762055 
L 269.148272 100.730717 
L 272.568088 101.93041 
L 275.987904 103.399716 
L 279.40772 103.683452 
L 282.827536 105.365848 
L 286.247352 106.4172 
L 289.667168 104.783072 
L 293.086984 104.884322 
L 296.506801 105.757898 
L 299.926617 105.768493 
L 303.346433 105.872098 
L 306.766249 106.755092 
L 310.186065 106.919918 
L 313.605881 105.935673 
L 317.025697 106.54906 
L 320.445514 107.933595 
L 323.86533 107.502694 
L 327.285146 106.076953 
L 330.704962 105.367026 
L 334.124778 106.586735 
L 337.544594 106.874002 
L 340.96441 105.915659 
L 344.384227 105.880339 
L 347.804043 106.642069 
L 351.223859 107.603944 
L 354.643675 108.089002 
L 358.063491 108.707097 
L 361.483307 107.831168 
L 364.903123 106.367752 
L 368.32294 107.360237 
L 371.742756 108.184366 
" clip-path="url(#pedb41b2a56)" style="fill: none; stroke: #808080; stroke-opacity: 0.5; stroke-width: 0.8; stroke-linecap: square"/>
   </g>
   <g id="line2d_21">
    <path d="M 67.379119 103.373991 
L 70.798935 103.359527 
L 74.218752 101.484278 
L 77.638568 103.084747 
L 81.058384 106.801509 
L 84.4782 105.663824 
L 87.898016 103.64636 
L 91.317832 105.376992 
L 94.737648 105.837369 
L 98.157465 103.781339 
L 101.577281 105.131136 
L 104.997097 106.379698 
L 108.416913 103.210085 
L 111.836729 100.483981 
L 115.256545 100.729837 
L 118.676361 100.194739 
L 122.096178 99.98986 
L 125.515994 100.980514 
L 128.93581 101.17816 
L 132.355626 97.644592 
L 135.775442 93.361396 
L 139.195258 91.888668 
L 142.615074 92.281555 
L 146.034891 90.767862 
L 149.454707 89.083026 
L 152.874523 88.902244 
L 156.294339 87.656096 
L 159.714155 101.78075 
L 163.133971 156.310073 
L 166.553787 220.623101 
L 169.973603 233.998125 
L 173.39342 191.686847 
L 176.813236 141.141778 
L 180.233052 108.676761 
L 183.652868 92.267096 
L 187.072684 87.002894 
L 190.4925 87.207769 
L 193.912316 87.053501 
L 197.332133 87.653682 
L 200.751949 90.468968 
L 204.171765 94.723248 
L 207.591581 96.817833 
L 211.011397 97.924188 
L 214.431213 99.281214 
L 217.851029 100.455056 
L 221.270846 99.727128 
L 224.690662 99.517433 
L 228.110478 99.237828 
L 231.530294 97.596377 
L 234.95011 98.107378 
L 238.369926 101.795211 
L 241.789742 104.605679 
L 245.209559 104.292334 
L 248.629375 101.99527 
L 252.049191 101.865111 
L 255.469007 105.075697 
L 258.888823 106.818382 
L 262.308639 108.124793 
L 265.728455 107.980171 
L 269.148272 105.784341 
L 272.568088 104.280283 
L 275.987904 104.393569 
L 279.40772 104.984105 
L 282.827536 107.929553 
L 286.247352 107.044954 
L 289.667168 106.05189 
L 293.086984 107.01362 
L 296.506801 107.992223 
L 299.926617 108.307978 
L 303.346433 106.389339 
L 306.766249 107.158241 
L 310.186065 106.625554 
L 313.605881 104.752712 
L 317.025697 103.988629 
L 320.445514 105.883166 
L 323.86533 105.842189 
L 327.285146 104.11156 
L 330.704962 103.665643 
L 334.124778 104.637014 
L 337.544594 107.377583 
L 340.96441 108.271823 
L 344.384227 107.43061 
L 347.804043 108.626146 
L 351.223859 109.69875 
L 354.643675 109.966298 
L 358.063491 109.544488 
L 361.483307 110.388111 
L 364.903123 108.074174 
L 368.32294 107.049775 
L 371.742756 109.072059 
" clip-path="url(#pedb41b2a56)" style="fill: none; stroke: #808080; stroke-opacity: 0.5; stroke-width: 0.8; stroke-linecap: square"/>
   </g>
   <g id="line2d_22">
    <path d="M 67.379119 103.484482 
L 70.798935 103.898533 
L 74.218752 104.97447 
L 77.638568 104.614794 
L 81.058384 104.757992 
L 84.4782 104.714824 
L 87.898016 103.131967 
L 91.317832 103.577046 
L 94.737648 104.456297 
L 98.157465 102.914825 
L 101.577281 100.922622 
L 104.997097 100.139704 
L 108.416913 99.788858 
L 111.836729 99.860674 
L 115.256545 98.443722 
L 118.676361 99.295911 
L 122.096178 96.710147 
L 125.515994 96.63212 
L 128.93581 96.207851 
L 132.355626 95.869362 
L 135.775442 93.361396 
L 139.195258 91.888668 
L 142.615074 92.281555 
L 146.034891 90.767862 
L 149.454707 89.083026 
L 152.874523 89.300066 
L 156.294339 78.408576 
L 159.714155 80.067416 
L 163.133971 135.333395 
L 166.553787 205.721661 
L 169.973603 233.998125 
L 173.39342 209.641397 
L 176.813236 173.865444 
L 180.233052 145.205214 
L 183.652868 127.353416 
L 187.072684 115.383451 
L 190.4925 107.320207 
L 193.912316 103.537653 
L 197.332133 100.537499 
L 200.751949 98.745533 
L 204.171765 97.05794 
L 207.591581 96.671375 
L 211.011397 94.735656 
L 214.431213 94.800738 
L 217.851029 97.562393 
L 221.270846 95.08574 
L 224.690662 93.737412 
L 228.110478 94.045864 
L 231.530294 95.906453 
L 234.95011 96.110472 
L 238.369926 95.431577 
L 241.789742 96.815276 
L 245.209559 98.891487 
L 248.629375 98.882318 
L 252.049191 99.164872 
L 255.469007 100.094129 
L 258.888823 100.574137 
L 262.308639 102.14704 
L 265.728455 102.264432 
L 269.148272 102.667506 
L 272.568088 102.230627 
L 275.987904 102.973277 
L 279.40772 103.33259 
L 282.827536 104.077048 
L 286.247352 104.6546 
L 289.667168 104.783072 
L 293.086984 104.884322 
L 296.506801 105.757898 
L 299.926617 105.768493 
L 303.346433 105.272846 
L 306.766249 104.531817 
L 310.186065 105.961554 
L 313.605881 105.989134 
L 317.025697 104.91488 
L 320.445514 104.375112 
L 323.86533 105.496807 
L 327.285146 105.505977 
L 330.704962 104.97563 
L 334.124778 106.602467 
L 337.544594 106.874002 
L 340.96441 105.990633 
L 344.384227 107.43061 
L 347.804043 108.424699 
L 351.223859 107.603944 
L 354.643675 108.089002 
L 358.063491 108.707097 
L 361.483307 108.090977 
L 364.903123 107.484613 
L 368.32294 107.371199 
L 371.742756 108.184366 
" clip-path="url(#pedb41b2a56)" style="fill: none; stroke: #0000ff; stroke-width: 1.5; stroke-linecap: square"/>
   </g>
   <g id="line2d_23">
    <path d="M 169.973603 244.078125 
L 169.973603 22.318125 
" clip-path="url(#pedb41b2a56)" style="fill: none; stroke-dasharray: 2.96,1.28; stroke-dashoffset: 0; stroke: #ff0000; stroke-width: 0.8"/>
   </g>
   <g id="patch_3">
    <path d="M 52.160938 244.078125 
L 52.160938 22.318125 
" style="fill: none; stroke: #000000; stroke-width: 0.8; stroke-linejoin: miter; stroke-linecap: square"/>
   </g>
   <g id="patch_4">
    <path d="M 52.160938 244.078125 
L 386.960938 244.078125 
" style="fill: none; stroke: #000000; stroke-width: 0.8; stroke-linejoin: miter; stroke-linecap: square"/>
   </g>
   <g id="text_17">
    <!-- Canonical waveform learned from control reaches -->
    <g transform="translate(69.68375 16.318125) scale(0.12 -0.12)">
     <defs>
      <path id="DejaVuSans-43" d="M 4122 4306 
L 4122 3641 
Q 3803 3938 3442 4084 
Q 3081 4231 2675 4231 
Q 1875 4231 1450 3742 
Q 1025 3253 1025 2328 
Q 1025 1406 1450 917 
Q 1875 428 2675 428 
Q 3081 428 3442 575 
Q 3803 722 4122 1019 
L 4122 359 
Q 3791 134 3420 21 
Q 3050 -91 2638 -91 
Q 1578 -91 968 557 
Q 359 1206 359 2328 
Q 359 3453 968 4101 
Q 1578 4750 2638 4750 
Q 3056 4750 3426 4639 
Q 3797 4528 4122 4306 
z
" transform="scale(0.015625)"/>
      <path id="DejaVuSans-6e" d="M 3513 2113 
L 3513 0 
L 2938 0 
L 2938 2094 
Q 2938 2591 2744 2837 
Q 2550 3084 2163 3084 
Q 1697 3084 1428 2787 
Q 1159 2491 1159 1978 
L 1159 0 
L 581 0 
L 581 3500 
L 1159 3500 
L 1159 2956 
Q 1366 3272 1645 3428 
Q 1925 3584 2291 3584 
Q 2894 3584 3203 3211 
Q 3513 2838 3513 2113 
z
" transform="scale(0.015625)"/>
      <path id="DejaVuSans-63" d="M 3122 3366 
L 3122 2828 
Q 2878 2963 2633 3030 
Q 2388 3097 2138 3097 
Q 1578 3097 1268 2742 
Q 959 2388 959 1747 
Q 959 1106 1268 751 
Q 1578 397 2138 397 
Q 2388 397 2633 464 
Q 2878 531 3122 666 
L 3122 134 
Q 2881 22 2623 -34 
Q 2366 -91 2075 -91 
Q 1284 -91 818 406 
Q 353 903 353 1747 
Q 353 2603 823 3093 
Q 1294 3584 2113 3584 
Q 2378 3584 2631 3529 
Q 2884 3475 3122 3366 
z
" transform="scale(0.015625)"/>
      <path id="DejaVuSans-77" d="M 269 3500 
L 844 3500 
L 1563 769 
L 2278 3500 
L 2956 3500 
L 3675 769 
L 4391 3500 
L 4966 3500 
L 4050 0 
L 3372 0 
L 2619 2869 
L 1863 0 
L 1184 0 
L 269 3500 
z
" transform="scale(0.015625)"/>
      <path id="DejaVuSans-76" d="M 191 3500 
L 800 3500 
L 1894 563 
L 2988 3500 
L 3597 3500 
L 2284 0 
L 1503 0 
L 191 3500 
z
" transform="scale(0.015625)"/>
      <path id="DejaVuSans-66" d="M 2375 4863 
L 2375 4384 
L 1825 4384 
Q 1516 4384 1395 4259 
Q 1275 4134 1275 3809 
L 1275 3500 
L 2222 3500 
L 2222 3053 
L 1275 3053 
L 1275 0 
L 697 0 
L 697 3053 
L 147 3053 
L 147 3500 
L 697 3500 
L 697 3744 
Q 697 4328 969 4595 
Q 1241 4863 1831 4863 
L 2375 4863 
z
" transform="scale(0.015625)"/>
      <path id="DejaVuSans-68" d="M 3513 2113 
L 3513 0 
L 2938 0 
L 2938 2094 
Q 2938 2591 2744 2837 
Q 2550 3084 2163 3084 
Q 1697 3084 1428 2787 
Q 1159 2491 1159 1978 
L 1159 0 
L 581 0 
L 581 4863 
L 1159 4863 
L 1159 2956 
Q 1366 3272 1645 3428 
Q 1925 3584 2291 3584 
Q 2894 3584 3203 3211 
Q 3513 2838 3513 2113 
z
" transform="scale(0.015625)"/>
     </defs>
     <use xlink:href="#DejaVuSans-43"/>
     <use xlink:href="#DejaVuSans-61" transform="translate(69.824219 0)"/>
     <use xlink:href="#DejaVuSans-6e" transform="translate(131.103516 0)"/>
     <use xlink:href="#DejaVuSans-6f" transform="translate(194.482422 0)"/>
     <use xlink:href="#DejaVuSans-6e" transform="translate(255.664062 0)"/>
     <use xlink:href="#DejaVuSans-69" transform="translate(319.042969 0)"/>
     <use xlink:href="#DejaVuSans-63" transform="translate(346.826172 0)"/>
     <use xlink:href="#DejaVuSans-61" transform="translate(401.806641 0)"/>
     <use xlink:href="#DejaVuSans-6c" transform="translate(463.085938 0)"/>
     <use xlink:href="#DejaVuSans-20" transform="translate(490.869141 0)"/>
     <use xlink:href="#DejaVuSans-77" transform="translate(522.65625 0)"/>
     <use xlink:href="#DejaVuSans-61" transform="translate(604.443359 0)"/>
     <use xlink:href="#DejaVuSans-76" transform="translate(665.722656 0)"/>
     <use xlink:href="#DejaVuSans-65" transform="translate(724.902344 0)"/>
     <use xlink:href="#DejaVuSans-66" transform="translate(786.425781 0)"/>
     <use xlink:href="#DejaVuSans-6f" transform="translate(821.630859 0)"/>
     <use xlink:href="#DejaVuSans-72" transform="translate(882.8125 0)"/>
     <use xlink:href="#DejaVuSans-6d" transform="translate(922.175781 0)"/>
     <use xlink:href="#DejaVuSans-20" transform="translate(1019.587891 0)"/>
     <use xlink:href="#DejaVuSans-6c" transform="translate(1051.375 0)"/>
     <use xlink:href="#DejaVuSans-65" transform="translate(1079.158203 0)"/>
     <use xlink:href="#DejaVuSans-61" transform="translate(1140.681641 0)"/>
     <use xlink:href="#DejaVuSans-72" transform="translate(1201.960938 0)"/>
     <use xlink:href="#DejaVuSans-6e" transform="translate(1241.324219 0)"/>
     <use xlink:href="#DejaVuSans-65" transform="translate(1304.703125 0)"/>
     <use xlink:href="#DejaVuSans-64" transform="translate(1366.226562 0)"/>
     <use xlink:href="#DejaVuSans-20" transform="translate(1429.703125 0)"/>
     <use xlink:href="#DejaVuSans-66" transform="translate(1461.490234 0)"/>
     <use xlink:href="#DejaVuSans-72" transform="translate(1496.695312 0)"/>
     <use xlink:href="#DejaVuSans-6f" transform="translate(1535.558594 0)"/>
     <use xlink:href="#DejaVuSans-6d" transform="translate(1596.740234 0)"/>
     <use xlink:href="#DejaVuSans-20" transform="translate(1694.152344 0)"/>
     <use xlink:href="#DejaVuSans-63" transform="translate(1725.939453 0)"/>
     <use xlink:href="#DejaVuSans-6f" transform="translate(1780.919922 0)"/>
     <use xlink:href="#DejaVuSans-6e" transform="translate(1842.101562 0)"/>
     <use xlink:href="#DejaVuSans-74" transform="translate(1905.480469 0)"/>
     <use xlink:href="#DejaVuSans-72" transform="translate(1944.689453 0)"/>
     <use xlink:href="#DejaVuSans-6f" transform="translate(1983.552734 0)"/>
     <use xlink:href="#DejaVuSans-6c" transform="translate(2044.734375 0)"/>
     <use xlink:href="#DejaVuSans-20" transform="translate(2072.517578 0)"/>
     <use xlink:href="#DejaVuSans-72" transform="translate(2104.304688 0)"/>
     <use xlink:href="#DejaVuSans-65" transform="translate(2143.167969 0)"/>
     <use xlink:href="#DejaVuSans-61" transform="translate(2204.691406 0)"/>
     <use xlink:href="#DejaVuSans-63" transform="translate(2265.970703 0)"/>
     <use xlink:href="#DejaVuSans-68" transform="translate(2320.951172 0)"/>
     <use xlink:href="#DejaVuSans-65" transform="translate(2384.330078 0)"/>
     <use xlink:href="#DejaVuSans-73" transform="translate(2445.853516 0)"/>
    </g>
   </g>
   <g id="legend_1">
    <g id="patch_5">
     <path d="M 326.662188 52.203125 
L 381.360937 52.203125 
Q 382.960938 52.203125 382.960938 50.603125 
L 382.960938 27.918125 
Q 382.960938 26.318125 381.360937 26.318125 
L 326.662188 26.318125 
Q 325.062187 26.318125 325.062187 27.918125 
L 325.062187 50.603125 
Q 325.062187 52.203125 326.662188 52.203125 
z
" style="fill: #ffffff; opacity: 0.8; stroke: #cccccc; stroke-linejoin: miter"/>
    </g>
    <g id="line2d_24">
     <path d="M 328.262187 32.796875 
L 336.262187 32.796875 
L 344.262187 32.796875 
" style="fill: none; stroke: #0000ff; stroke-width: 1.5; stroke-linecap: square"/>
    </g>
    <g id="text_18">
     <!-- Median -->
     <g transform="translate(350.662187 35.596875) scale(0.08 -0.08)">
      <defs>
       <path id="DejaVuSans-4d" d="M 628 4666 
L 1569 4666 
L 2759 1491 
L 3956 4666 
L 4897 4666 
L 4897 0 
L 4281 0 
L 4281 4097 
L 3078 897 
L 2444 897 
L 1241 4097 
L 1241 0 
L 628 0 
L 628 4666 
z
" transform="scale(0.015625)"/>
      </defs>
      <use xlink:href="#DejaVuSans-4d"/>
      <use xlink:href="#DejaVuSans-65" transform="translate(86.279297 0)"/>
      <use xlink:href="#DejaVuSans-64" transform="translate(147.802734 0)"/>
      <use xlink:href="#DejaVuSans-69" transform="translate(211.279297 0)"/>
      <use xlink:href="#DejaVuSans-61" transform="translate(239.0625 0)"/>
      <use xlink:href="#DejaVuSans-6e" transform="translate(300.341797 0)"/>
     </g>
    </g>
    <g id="line2d_25">
     <path d="M 328.262187 44.539375 
L 336.262187 44.539375 
L 344.262187 44.539375 
" style="fill: none; stroke-dasharray: 2.96,1.28; stroke-dashoffset: 0; stroke: #ff0000; stroke-width: 0.8"/>
    </g>
    <g id="text_19">
     <!-- Trough -->
     <g transform="translate(350.662187 47.339375) scale(0.08 -0.08)">
      <defs>
       <path id="DejaVuSans-54" d="M -19 4666 
L 3928 4666 
L 3928 4134 
L 2272 4134 
L 2272 0 
L 1638 0 
L 1638 4134 
L -19 4134 
L -19 4666 
z
" transform="scale(0.015625)"/>
       <path id="DejaVuSans-67" d="M 2906 1791 
Q 2906 2416 2648 2759 
Q 2391 3103 1925 3103 
Q 1463 3103 1205 2759 
Q 947 2416 947 1791 
Q 947 1169 1205 825 
Q 1463 481 1925 481 
Q 2391 481 2648 825 
Q 2906 1169 2906 1791 
z
M 3481 434 
Q 3481 -459 3084 -895 
Q 2688 -1331 1869 -1331 
Q 1566 -1331 1297 -1286 
Q 1028 -1241 775 -1147 
L 775 -588 
Q 1028 -725 1275 -790 
Q 1522 -856 1778 -856 
Q 2344 -856 2625 -561 
Q 2906 -266 2906 331 
L 2906 616 
Q 2728 306 2450 153 
Q 2172 0 1784 0 
Q 1141 0 747 490 
Q 353 981 353 1791 
Q 353 2603 747 3093 
Q 1141 3584 1784 3584 
Q 2172 3584 2450 3431 
Q 2728 3278 2906 2969 
L 2906 3500 
L 3481 3500 
L 3481 434 
z
" transform="scale(0.015625)"/>
      </defs>
      <use xlink:href="#DejaVuSans-54"/>
      <use xlink:href="#DejaVuSans-72" transform="translate(46.333984 0)"/>
      <use xlink:href="#DejaVuSans-6f" transform="translate(85.197266 0)"/>
      <use xlink:href="#DejaVuSans-75" transform="translate(146.378906 0)"/>
      <use xlink:href="#DejaVuSans-67" transform="translate(209.757812 0)"/>
      <use xlink:href="#DejaVuSans-68" transform="translate(273.234375 0)"/>
     </g>
    </g>
   </g>
  </g>
 </g>
 <defs>
  <clipPath id="pedb41b2a56">
   <rect x="52.160938" y="22.318125" width="334.8" height="221.76"/>
  </clipPath>
 </defs>
</svg>
