<?xml version="1.0" encoding="UTF-8"?>
<!DOCTYPE svg PUBLIC "-//W3C//DTD SVG 1.1//EN" "http://www.w3.org/Graphics/SVG/1.1/DTD/svg11.dtd">
<!-- Creator: CorelDRAW -->
<svg xmlns="http://www.w3.org/2000/svg" xml:space="preserve" width="8.5in" height="11in" version="1.1" style="shape-rendering:geometricPrecision; text-rendering:geometricPrecision; image-rendering:optimizeQuality; fill-rule:evenodd; clip-rule:evenodd"
viewBox="0 0 8500 11000"
 xmlns:xlink="http://www.w3.org/1999/xlink"
 xmlns:xodm="http://www.corel.com/coreldraw/odm/2003">
 <defs>
  <style type="text/css">
   <![CDATA[
    .str0 {stroke:black;stroke-width:11.11;stroke-miterlimit:2.61313}
    .str1 {stroke:#4C4C4C;stroke-width:6.94;stroke-miterlimit:2.61313}
    .fil0 {fill:none;fill-rule:nonzero}
    .fil1 {fill:#ED3237;fill-rule:nonzero}
    .fil2 {fill:#ED3237;fill-rule:nonzero}
   ]]>
  </style>
 </defs>
 <g id="Layer_x0020_1">
  <metadata id="CorelCorpID_0Corel-Layer"/>
  <polygon class="fil0 str0" points="3565.59,2921.18 3565.59,6912.32 3725.69,7157.93 3885.8,6912.32 3885.8,2921.18 "/>
  <polygon class="fil0 str1" points="3732.97,6869.34 3732.97,6832.5 3776.64,6832.5 3776.64,6869.34 "/>
  <polygon class="fil0 str1" points="3616.54,6869.34 3616.54,6832.5 3660.2,6832.5 3660.2,6869.34 "/>
  <polygon class="fil0 str1" points="3791.19,6807.94 3791.19,6771.1 3834.85,6771.1 3834.85,6807.94 "/>
  <polygon class="fil0 str1" points="3674.75,6807.94 3674.75,6771.1 3718.42,6771.1 3718.42,6807.94 "/>
  <polygon class="fil0 str1" points="3732.97,6746.54 3732.97,6709.7 3776.64,6709.7 3776.64,6746.54 "/>
  <polygon class="fil0 str1" points="3616.54,6746.54 3616.54,6709.7 3660.2,6709.7 3660.2,6746.54 "/>
  <g>
   <polygon class="fil1" points="3791.19,6685.13 3791.19,6648.3 3834.85,6648.3 3834.85,6685.13 "/>
   <polygon id="_1" class="fil0 str1" points="3791.19,6685.13 3791.19,6648.3 3834.85,6648.3 3834.85,6685.13 "/>
  </g>
  <g>
   <polygon class="fil1" points="3674.75,6685.13 3674.75,6648.3 3718.42,6648.3 3718.42,6685.13 "/>
   <polygon id="_1_99" class="fil0 str1" points="3674.75,6685.13 3674.75,6648.3 3718.42,6648.3 3718.42,6685.13 "/>
  </g>
  <polygon class="fil0 str1" points="3732.97,6623.73 3732.97,6586.89 3776.64,6586.89 3776.64,6623.73 "/>
  <polygon class="fil0 str1" points="3616.54,6623.73 3616.54,6586.89 3660.2,6586.89 3660.2,6623.73 "/>
  <polygon class="fil0 str1" points="3791.19,6562.33 3791.19,6525.49 3834.85,6525.49 3834.85,6562.33 "/>
  <polygon class="fil0 str1" points="3674.75,6562.33 3674.75,6525.49 3718.42,6525.49 3718.42,6562.33 "/>
  <polygon class="fil0 str1" points="3732.97,6500.93 3732.97,6464.09 3776.64,6464.09 3776.64,6500.93 "/>
  <polygon class="fil0 str1" points="3616.54,6500.93 3616.54,6464.09 3660.2,6464.09 3660.2,6500.93 "/>
  <polygon class="fil0 str1" points="3791.19,6439.53 3791.19,6402.69 3834.85,6402.69 3834.85,6439.53 "/>
  <polygon class="fil0 str1" points="3674.75,6439.53 3674.75,6402.69 3718.42,6402.69 3718.42,6439.53 "/>
  <polygon class="fil0 str1" points="3732.97,6378.12 3732.97,6341.28 3776.64,6341.28 3776.64,6378.12 "/>
  <polygon class="fil0 str1" points="3616.54,6378.12 3616.54,6341.28 3660.2,6341.28 3660.2,6378.12 "/>
  <polygon class="fil0 str1" points="3791.19,6316.72 3791.19,6279.88 3834.85,6279.88 3834.85,6316.72 "/>
  <polygon class="fil0 str1" points="3674.75,6316.72 3674.75,6279.88 3718.42,6279.88 3718.42,6316.72 "/>
  <polygon class="fil0 str1" points="3732.97,6255.32 3732.97,6218.48 3776.64,6218.48 3776.64,6255.32 "/>
  <polygon class="fil0 str1" points="3616.54,6255.32 3616.54,6218.48 3660.2,6218.48 3660.2,6255.32 "/>
  <g>
   <polygon class="fil1" points="3791.19,6193.92 3791.19,6157.07 3834.85,6157.07 3834.85,6193.92 "/>
   <polygon id="_1_100" class="fil0 str1" points="3791.19,6193.92 3791.19,6157.07 3834.85,6157.07 3834.85,6193.92 "/>
  </g>
  <g>
   <polygon class="fil1" points="3674.75,6193.92 3674.75,6157.07 3718.42,6157.07 3718.42,6193.92 "/>
   <polygon id="_1_101" class="fil0 str1" points="3674.75,6193.92 3674.75,6157.07 3718.42,6157.07 3718.42,6193.92 "/>
  </g>
  <polygon class="fil0 str1" points="3732.97,6132.52 3732.97,6095.67 3776.64,6095.67 3776.64,6132.52 "/>
  <polygon class="fil0 str1" points="3616.54,6132.52 3616.54,6095.67 3660.2,6095.67 3660.2,6132.52 "/>
  <polygon class="fil0 str1" points="3791.19,6071.11 3791.19,6034.27 3834.85,6034.27 3834.85,6071.11 "/>
  <polygon class="fil0 str1" points="3674.75,6071.11 3674.75,6034.27 3718.42,6034.27 3718.42,6071.11 "/>
  <g>
   <polygon class="fil1" points="3732.97,6009.71 3732.97,5972.87 3776.64,5972.87 3776.64,6009.71 "/>
   <polygon id="_1_102" class="fil0 str1" points="3732.97,6009.71 3732.97,5972.87 3776.64,5972.87 3776.64,6009.71 "/>
  </g>
  <g>
   <polygon class="fil1" points="3616.54,6009.71 3616.54,5972.87 3660.2,5972.87 3660.2,6009.71 "/>
   <polygon id="_1_103" class="fil0 str1" points="3616.54,6009.71 3616.54,5972.87 3660.2,5972.87 3660.2,6009.71 "/>
  </g>
  <polygon class="fil0 str1" points="3791.19,5948.31 3791.19,5911.47 3834.85,5911.47 3834.85,5948.31 "/>
  <polygon class="fil0 str1" points="3674.75,5948.31 3674.75,5911.47 3718.42,5911.47 3718.42,5948.31 "/>
  <polygon class="fil0 str1" points="3732.97,5886.91 3732.97,5850.07 3776.64,5850.07 3776.64,5886.91 "/>
  <polygon class="fil0 str1" points="3616.54,5886.91 3616.54,5850.07 3660.2,5850.07 3660.2,5886.91 "/>
  <polygon class="fil2 str1" points="3791.19,5825.5 3791.19,5788.66 3834.85,5788.66 3834.85,5825.5 "/>
  <polygon class="fil2 str1" points="3674.75,5825.5 3674.75,5788.66 3718.42,5788.66 3718.42,5825.5 "/>
  <polygon class="fil0 str1" points="3732.97,5764.1 3732.97,5727.26 3776.64,5727.26 3776.64,5764.1 "/>
  <polygon class="fil0 str1" points="3616.54,5764.1 3616.54,5727.26 3660.2,5727.26 3660.2,5764.1 "/>
  <polygon class="fil0 str1" points="3791.19,5702.7 3791.19,5665.86 3834.85,5665.86 3834.85,5702.7 "/>
  <polygon class="fil0 str1" points="3674.75,5702.7 3674.75,5665.86 3718.42,5665.86 3718.42,5702.7 "/>
  <polygon class="fil0 str1" points="3732.97,5641.3 3732.97,5604.46 3776.64,5604.46 3776.64,5641.3 "/>
  <polygon class="fil0 str1" points="3616.54,5641.3 3616.54,5604.46 3660.2,5604.46 3660.2,5641.3 "/>
  <polygon class="fil0 str1" points="3791.19,5579.9 3791.19,5543.06 3834.85,5543.06 3834.85,5579.9 "/>
  <polygon class="fil0 str1" points="3674.75,5579.9 3674.75,5543.06 3718.42,5543.06 3718.42,5579.9 "/>
  <polygon class="fil0 str1" points="3732.97,5518.49 3732.97,5481.65 3776.64,5481.65 3776.64,5518.49 "/>
  <polygon class="fil0 str1" points="3616.54,5518.49 3616.54,5481.65 3660.2,5481.65 3660.2,5518.49 "/>
  <polygon class="fil2 str1" points="3791.19,5457.09 3791.19,5420.25 3834.85,5420.25 3834.85,5457.09 "/>
  <polygon class="fil2 str1" points="3674.75,5457.09 3674.75,5420.25 3718.42,5420.25 3718.42,5457.09 "/>
  <polygon class="fil0 str1" points="3732.97,5395.69 3732.97,5358.85 3776.64,5358.85 3776.64,5395.69 "/>
  <polygon class="fil0 str1" points="3616.54,5395.69 3616.54,5358.85 3660.2,5358.85 3660.2,5395.69 "/>
  <polygon class="fil0 str1" points="3791.19,5334.29 3791.19,5297.44 3834.85,5297.44 3834.85,5334.29 "/>
  <polygon class="fil0 str1" points="3674.75,5334.29 3674.75,5297.44 3718.42,5297.44 3718.42,5334.29 "/>
  <polygon class="fil0 str1" points="3732.97,5272.89 3732.97,5236.04 3776.64,5236.04 3776.64,5272.89 "/>
  <polygon class="fil0 str1" points="3616.54,5272.89 3616.54,5236.04 3660.2,5236.04 3660.2,5272.89 "/>
  <polygon class="fil0 str1" points="3791.19,5211.48 3791.19,5174.64 3834.85,5174.64 3834.85,5211.48 "/>
  <polygon class="fil0 str1" points="3674.75,5211.48 3674.75,5174.64 3718.42,5174.64 3718.42,5211.48 "/>
  <polygon class="fil0 str1" points="3732.97,5150.08 3732.97,5113.24 3776.64,5113.24 3776.64,5150.08 "/>
  <polygon class="fil0 str1" points="3616.54,5150.08 3616.54,5113.24 3660.2,5113.24 3660.2,5150.08 "/>
  <polygon class="fil0 str1" points="3791.19,5088.68 3791.19,5051.83 3834.85,5051.83 3834.85,5088.68 "/>
  <polygon class="fil0 str1" points="3674.75,5088.68 3674.75,5051.83 3718.42,5051.83 3718.42,5088.68 "/>
  <polygon class="fil0 str1" points="3732.97,5027.28 3732.97,4990.43 3776.64,4990.43 3776.64,5027.28 "/>
  <polygon class="fil0 str1" points="3616.54,5027.28 3616.54,4990.43 3660.2,4990.43 3660.2,5027.28 "/>
  <polygon class="fil0 str1" points="3791.19,4965.87 3791.19,4929.03 3834.85,4929.03 3834.85,4965.87 "/>
  <polygon class="fil0 str1" points="3674.75,4965.87 3674.75,4929.03 3718.42,4929.03 3718.42,4965.87 "/>
  <polygon class="fil0 str1" points="3732.97,4904.47 3732.97,4867.63 3776.64,4867.63 3776.64,4904.47 "/>
  <polygon class="fil0 str1" points="3616.54,4904.47 3616.54,4867.63 3660.2,4867.63 3660.2,4904.47 "/>
  <g>
   <polygon class="fil1" points="3791.19,4843.07 3791.19,4806.23 3834.85,4806.23 3834.85,4843.07 "/>
   <polygon id="_1_104" class="fil0 str1" points="3791.19,4843.07 3791.19,4806.23 3834.85,4806.23 3834.85,4843.07 "/>
  </g>
  <g>
   <polygon class="fil1" points="3674.75,4843.07 3674.75,4806.23 3718.42,4806.23 3718.42,4843.07 "/>
   <polygon id="_1_105" class="fil0 str1" points="3674.75,4843.07 3674.75,4806.23 3718.42,4806.23 3718.42,4843.07 "/>
  </g>
  <g>
   <polygon class="fil1" points="3732.97,4781.67 3732.97,4744.83 3776.64,4744.83 3776.64,4781.67 "/>
   <polygon id="_1_106" class="fil0 str1" points="3732.97,4781.67 3732.97,4744.83 3776.64,4744.83 3776.64,4781.67 "/>
  </g>
  <g>
   <polygon class="fil1" points="3616.54,4781.67 3616.54,4744.83 3660.2,4744.83 3660.2,4781.67 "/>
   <polygon id="_1_107" class="fil0 str1" points="3616.54,4781.67 3616.54,4744.83 3660.2,4744.83 3660.2,4781.67 "/>
  </g>
  <polygon class="fil0 str1" points="3791.19,4720.26 3791.19,4683.43 3834.85,4683.43 3834.85,4720.26 "/>
  <polygon class="fil0 str1" points="3674.75,4720.26 3674.75,4683.43 3718.42,4683.43 3718.42,4720.26 "/>
  <polygon class="fil0 str1" points="3732.97,4658.86 3732.97,4622.02 3776.64,4622.02 3776.64,4658.86 "/>
  <polygon class="fil0 str1" points="3616.54,4658.86 3616.54,4622.02 3660.2,4622.02 3660.2,4658.86 "/>
  <g>
   <polygon class="fil1" points="3791.19,4597.46 3791.19,4560.62 3834.85,4560.62 3834.85,4597.46 "/>
   <polygon id="_1_108" class="fil0 str1" points="3791.19,4597.46 3791.19,4560.62 3834.85,4560.62 3834.85,4597.46 "/>
  </g>
  <g>
   <polygon class="fil1" points="3674.75,4597.46 3674.75,4560.62 3718.42,4560.62 3718.42,4597.46 "/>
   <polygon id="_1_109" class="fil0 str1" points="3674.75,4597.46 3674.75,4560.62 3718.42,4560.62 3718.42,4597.46 "/>
  </g>
  <polygon class="fil0 str1" points="3732.97,4536.06 3732.97,4499.22 3776.64,4499.22 3776.64,4536.06 "/>
  <polygon class="fil0 str1" points="3616.54,4536.06 3616.54,4499.22 3660.2,4499.22 3660.2,4536.06 "/>
  <polygon class="fil0 str1" points="3791.19,4474.66 3791.19,4437.81 3834.85,4437.81 3834.85,4474.66 "/>
  <polygon class="fil0 str1" points="3674.75,4474.66 3674.75,4437.81 3718.42,4437.81 3718.42,4474.66 "/>
  <polygon class="fil0 str1" points="3732.97,4413.25 3732.97,4376.41 3776.64,4376.41 3776.64,4413.25 "/>
  <polygon class="fil0 str1" points="3616.54,4413.25 3616.54,4376.41 3660.2,4376.41 3660.2,4413.25 "/>
  <polygon class="fil0 str1" points="3791.19,4351.85 3791.19,4315.01 3834.85,4315.01 3834.85,4351.85 "/>
  <polygon class="fil0 str1" points="3674.75,4351.85 3674.75,4315.01 3718.42,4315.01 3718.42,4351.85 "/>
  <polygon class="fil0 str1" points="3732.97,4290.45 3732.97,4253.61 3776.64,4253.61 3776.64,4290.45 "/>
  <polygon class="fil0 str1" points="3616.54,4290.45 3616.54,4253.61 3660.2,4253.61 3660.2,4290.45 "/>
  <polygon class="fil0 str1" points="3791.19,4229.05 3791.19,4192.2 3834.85,4192.2 3834.85,4229.05 "/>
  <polygon class="fil0 str1" points="3674.75,4229.05 3674.75,4192.2 3718.42,4192.2 3718.42,4229.05 "/>
  <polygon class="fil0 str1" points="3732.97,4167.65 3732.97,4130.8 3776.64,4130.8 3776.64,4167.65 "/>
  <polygon class="fil0 str1" points="3616.54,4167.65 3616.54,4130.8 3660.2,4130.8 3660.2,4167.65 "/>
  <polygon class="fil0 str1" points="3791.19,4106.24 3791.19,4069.4 3834.85,4069.4 3834.85,4106.24 "/>
  <polygon class="fil0 str1" points="3674.75,4106.24 3674.75,4069.4 3718.42,4069.4 3718.42,4106.24 "/>
  <polygon class="fil0 str1" points="3732.97,4044.84 3732.97,4008 3776.64,4008 3776.64,4044.84 "/>
  <polygon class="fil0 str1" points="3616.54,4044.84 3616.54,4008 3660.2,4008 3660.2,4044.84 "/>
  <polygon class="fil0 str1" points="3791.19,3983.44 3791.19,3946.6 3834.85,3946.6 3834.85,3983.44 "/>
  <polygon class="fil0 str1" points="3674.75,3983.44 3674.75,3946.6 3718.42,3946.6 3718.42,3983.44 "/>
  <g>
   <polygon class="fil1" points="3732.97,3922.04 3732.97,3885.2 3776.64,3885.2 3776.64,3922.04 "/>
   <polygon id="_1_110" class="fil0 str1" points="3732.97,3922.04 3732.97,3885.2 3776.64,3885.2 3776.64,3922.04 "/>
  </g>
  <g>
   <polygon class="fil1" points="3616.54,3922.04 3616.54,3885.2 3660.2,3885.2 3660.2,3922.04 "/>
   <polygon id="_1_111" class="fil0 str1" points="3616.54,3922.04 3616.54,3885.2 3660.2,3885.2 3660.2,3922.04 "/>
  </g>
  <g>
   <polygon class="fil1" points="3791.19,3860.63 3791.19,3823.79 3834.85,3823.79 3834.85,3860.63 "/>
   <polygon id="_1_112" class="fil0 str1" points="3791.19,3860.63 3791.19,3823.79 3834.85,3823.79 3834.85,3860.63 "/>
  </g>
  <g>
   <polygon class="fil1" points="3674.75,3860.63 3674.75,3823.79 3718.42,3823.79 3718.42,3860.63 "/>
   <polygon id="_1_113" class="fil0 str1" points="3674.75,3860.63 3674.75,3823.79 3718.42,3823.79 3718.42,3860.63 "/>
  </g>
  <polygon class="fil0 str1" points="3732.97,3799.23 3732.97,3762.39 3776.64,3762.39 3776.64,3799.23 "/>
  <polygon class="fil0 str1" points="3616.54,3799.23 3616.54,3762.39 3660.2,3762.39 3660.2,3799.23 "/>
  <g>
   <polygon class="fil1" points="3791.19,3737.83 3791.19,3700.99 3834.85,3700.99 3834.85,3737.83 "/>
   <polygon id="_1_114" class="fil0 str1" points="3791.19,3737.83 3791.19,3700.99 3834.85,3700.99 3834.85,3737.83 "/>
  </g>
  <g>
   <polygon class="fil1" points="3674.75,3737.83 3674.75,3700.99 3718.42,3700.99 3718.42,3737.83 "/>
   <polygon id="_1_115" class="fil0 str1" points="3674.75,3737.83 3674.75,3700.99 3718.42,3700.99 3718.42,3737.83 "/>
  </g>
  <g>
   <polygon class="fil1" points="3732.97,3676.43 3732.97,3639.59 3776.64,3639.59 3776.64,3676.43 "/>
   <polygon id="_1_116" class="fil0 str1" points="3732.97,3676.43 3732.97,3639.59 3776.64,3639.59 3776.64,3676.43 "/>
  </g>
  <g>
   <polygon class="fil1" points="3616.54,3676.43 3616.54,3639.59 3660.2,3639.59 3660.2,3676.43 "/>
   <polygon id="_1_117" class="fil0 str1" points="3616.54,3676.43 3616.54,3639.59 3660.2,3639.59 3660.2,3676.43 "/>
  </g>
  <polygon class="fil0 str1" points="3791.19,3615.03 3791.19,3578.19 3834.85,3578.19 3834.85,3615.03 "/>
  <polygon class="fil0 str1" points="3674.75,3615.03 3674.75,3578.19 3718.42,3578.19 3718.42,3615.03 "/>
  <polygon class="fil0 str1" points="3732.97,3553.62 3732.97,3516.78 3776.64,3516.78 3776.64,3553.62 "/>
  <polygon class="fil0 str1" points="3616.54,3553.62 3616.54,3516.78 3660.2,3516.78 3660.2,3553.62 "/>
  <polygon class="fil0 str1" points="3791.19,3492.22 3791.19,3455.38 3834.85,3455.38 3834.85,3492.22 "/>
  <polygon class="fil0 str1" points="3674.75,3492.22 3674.75,3455.38 3718.42,3455.38 3718.42,3492.22 "/>
  <polygon class="fil0 str1" points="3732.97,3430.82 3732.97,3393.98 3776.64,3393.98 3776.64,3430.82 "/>
  <polygon class="fil0 str1" points="3616.54,3430.82 3616.54,3393.98 3660.2,3393.98 3660.2,3430.82 "/>
  <polygon class="fil0 str1" points="3791.19,3369.42 3791.19,3332.57 3834.85,3332.57 3834.85,3369.42 "/>
  <polygon class="fil0 str1" points="3674.75,3369.42 3674.75,3332.57 3718.42,3332.57 3718.42,3369.42 "/>
  <polygon class="fil0 str1" points="3732.97,3308.02 3732.97,3271.17 3776.64,3271.17 3776.64,3308.02 "/>
  <polygon class="fil0 str1" points="3616.54,3308.02 3616.54,3271.17 3660.2,3271.17 3660.2,3308.02 "/>
  <polygon class="fil0 str1" points="3791.19,3246.61 3791.19,3209.77 3834.85,3209.77 3834.85,3246.61 "/>
  <polygon class="fil0 str1" points="3674.75,3246.61 3674.75,3209.77 3718.42,3209.77 3718.42,3246.61 "/>
  <polygon class="fil0 str1" points="3732.97,3185.21 3732.97,3148.37 3776.64,3148.37 3776.64,3185.21 "/>
  <polygon class="fil0 str1" points="3616.54,3185.21 3616.54,3148.37 3660.2,3148.37 3660.2,3185.21 "/>
  <polygon class="fil0 str1" points="3791.19,3123.81 3791.19,3086.97 3834.85,3086.97 3834.85,3123.81 "/>
  <polygon class="fil0 str1" points="3674.75,3123.81 3674.75,3086.97 3718.42,3086.97 3718.42,3123.81 "/>
  <polygon class="fil0 str1" points="3732.97,3062.41 3732.97,3025.56 3776.64,3025.56 3776.64,3062.41 "/>
  <polygon class="fil0 str1" points="3616.54,3062.41 3616.54,3025.56 3660.2,3025.56 3660.2,3062.41 "/>
  <polygon class="fil0 str1" points="3791.19,3001 3791.19,2964.16 3834.85,2964.16 3834.85,3001 "/>
  <polygon class="fil0 str1" points="3674.75,3001 3674.75,2964.16 3718.42,2964.16 3718.42,3001 "/>
 </g>
</svg>
